<svg width="103" height="32" viewBox="0 0 103 32" fill="none" xmlns="http://www.w3.org/2000/svg">
<path d="M33.6129 13.1672C33.6129 11.3128 31.851 9.34333 28.8022 9.34333C25.3785 9.34333 21.6173 11.9139 21.0426 17.0423C20.4553 22.2218 23.6041 24.5239 26.7779 24.5239C29.9518 24.5239 31.6136 23.2577 33.313 21.5696C31.8511 19.6896 29.9642 20.5593 29.6019 20.7511C29.202 20.9557 28.6897 21.2371 27.6401 21.2371C26.4156 21.2371 25.166 20.6744 25.166 18.334C33.0131 17.5411 33.6129 15.0216 33.6129 13.1672ZM29.7268 13.4742C29.6769 14.0497 29.4519 15.0344 25.4784 15.5844C26.3156 12.5406 27.915 12.3104 28.6522 12.3104C29.3395 12.3104 29.7768 12.8603 29.7268 13.4742ZM16.4318 13.9729C16.4318 13.9729 14.7449 19.3955 14.6074 19.8431C14.5575 19.3827 13.3204 9.65027 13.3204 9.65027C10.4465 9.65027 8.90956 11.7477 8.09737 13.9602C8.09737 13.9602 6.04813 19.3955 5.87319 19.8559C5.8607 19.4338 5.56081 14.0241 5.56081 14.0241C5.38587 11.3128 2.96177 9.66306 1 9.66306L3.37412 24.4088C6.3855 24.396 8.0099 22.3114 8.85958 20.0989C8.85958 20.0989 10.6714 15.303 10.7464 15.0856C10.7589 15.2902 12.0459 24.4088 12.0459 24.4088C15.0698 24.4088 16.6942 22.452 17.5689 20.3163L21.8048 9.66306C18.8184 9.66306 17.244 11.7477 16.4318 13.9729ZM44.7088 9.31776C42.847 9.31776 41.4225 10.3537 40.2229 11.8756V11.8628L41.2975 3C38.8235 3 36.8117 5.19971 36.4244 8.47368L34.55 24.2937C35.9745 24.2937 37.4865 23.8716 38.2987 22.7973C39.0234 23.7565 40.1105 24.5239 41.7224 24.5239C45.8958 24.5239 48.7573 19.5617 48.7573 14.9065C48.7323 10.6606 46.7205 9.31776 44.7088 9.31776ZM44.3214 16.9272C43.8841 19.5234 42.4721 21.2882 41.1101 21.2882C39.7356 21.2882 39.1483 20.6616 39.1483 20.6616C39.4107 18.3851 39.5732 16.9911 40.073 15.789C40.5728 14.5868 41.7599 12.6685 42.9969 12.6685C44.209 12.6685 44.7588 14.3183 44.3214 16.9272ZM59.1784 9.66306H56.267L56.2795 9.50959C56.4794 7.56567 56.9292 6.54255 58.4162 6.37629C59.4283 6.27398 59.8781 5.73684 59.9906 5.14855C60.0781 4.68815 60.353 3.08952 60.353 3.08952C54.5051 3.05116 52.6683 5.63453 52.1935 9.57354L52.181 9.66306H52.1185C51.1689 9.66306 50.1193 10.7629 49.9443 12.1569L49.8819 12.6685H51.8311L50.1942 26.5061L49.6944 28.9872C49.7569 28.9872 49.8319 29 49.8943 29C52.6308 28.8977 54.3802 26.6852 54.7675 23.4752L56.0421 12.6685H56.9542C57.8539 12.6685 58.9035 11.7477 59.0909 10.213L59.1784 9.66306ZM74.3228 9.40728C70.9615 9.40728 67.7877 11.9395 66.8131 15.9169C65.8384 19.8942 67.3129 24.6006 72.261 24.6006C77.1967 24.6006 80.0457 19.7024 80.0457 15.6227C80.0457 11.5686 77.3592 9.40728 74.3228 9.40728ZM75.6848 16.7993C75.5099 18.6026 74.7351 21.3394 72.6109 21.3394C70.4742 21.3394 70.7741 18.1422 70.9865 16.6203C71.2114 14.9961 72.0986 12.6813 74.0104 12.6813C75.7223 12.6813 75.8847 14.7659 75.6848 16.7993ZM96.652 13.9729C96.652 13.9729 94.9651 19.3955 94.8277 19.8431C94.7777 19.3827 93.5407 9.65027 93.5407 9.65027C90.6667 9.65027 89.1298 11.7477 88.3176 13.9602C88.3176 13.9602 86.2684 19.3955 86.0934 19.8559C86.0809 19.4338 85.781 14.0241 85.781 14.0241C85.6061 11.3128 83.182 9.66306 81.2202 9.66306L83.5818 24.4088C86.5932 24.396 88.2176 22.3114 89.0673 20.0989C89.0673 20.0989 90.8791 15.303 90.9416 15.0856C90.9666 15.2902 92.2411 24.4088 92.2411 24.4088C95.265 24.4088 96.8894 22.452 97.7641 20.3163L102 9.66306C99.0261 9.66306 97.4517 11.7477 96.652 13.9729ZM61.9274 3.08952L59.4783 23.3089L58.9785 25.8028C59.041 25.8028 59.1159 25.8155 59.1784 25.8155C61.8149 25.7772 63.6892 23.4112 64.0391 20.4314L65.4511 8.83178C65.8759 5.28923 63.8142 3.08952 61.9274 3.08952Z" fill="white"/>
</svg>
